<mxfile host="app.diagrams.net" modified="2023-11-08T03:18:37.228Z" agent="Mozilla/5.0 (Windows NT 10.0; Win64; x64) AppleWebKit/537.36 (KHTML, like Gecko) Chrome/119.0.0.0 Safari/537.36" etag="KdJXwUImOuKU1T_D_EBQ" version="22.0.8" type="google">
  <diagram name="Page-1" id="CtAqu_Ewa9IOqDz0TUkq">
    <mxGraphModel grid="1" page="1" gridSize="10" guides="1" tooltips="1" connect="1" arrows="1" fold="1" pageScale="1" pageWidth="827" pageHeight="1169" math="0" shadow="0">
      <root>
        <mxCell id="0" />
        <mxCell id="1" parent="0" />
        <mxCell id="b1p56JkDS0H2IpYGcqzU-3" style="edgeStyle=orthogonalEdgeStyle;rounded=0;orthogonalLoop=1;jettySize=auto;html=1;exitX=1;exitY=0.5;exitDx=0;exitDy=0;entryX=0;entryY=0.5;entryDx=0;entryDy=0;endArrow=none;endFill=0;" edge="1" parent="1" source="b1p56JkDS0H2IpYGcqzU-1" target="b1p56JkDS0H2IpYGcqzU-2">
          <mxGeometry relative="1" as="geometry" />
        </mxCell>
        <mxCell id="b1p56JkDS0H2IpYGcqzU-4" value="1" style="edgeLabel;html=1;align=center;verticalAlign=middle;resizable=0;points=[];" vertex="1" connectable="0" parent="b1p56JkDS0H2IpYGcqzU-3">
          <mxGeometry x="-0.0638" relative="1" as="geometry">
            <mxPoint as="offset" />
          </mxGeometry>
        </mxCell>
        <mxCell id="b1p56JkDS0H2IpYGcqzU-1" value="ResortManagementSystem" style="rounded=1;arcSize=10;whiteSpace=wrap;html=1;align=center;" vertex="1" parent="1">
          <mxGeometry x="50" y="320" width="150" height="40" as="geometry" />
        </mxCell>
        <mxCell id="b1p56JkDS0H2IpYGcqzU-6" style="edgeStyle=orthogonalEdgeStyle;rounded=0;orthogonalLoop=1;jettySize=auto;html=1;exitX=1;exitY=0.5;exitDx=0;exitDy=0;entryX=0;entryY=0.5;entryDx=0;entryDy=0;endArrow=none;endFill=0;" edge="1" parent="1" source="b1p56JkDS0H2IpYGcqzU-2" target="b1p56JkDS0H2IpYGcqzU-5">
          <mxGeometry relative="1" as="geometry" />
        </mxCell>
        <mxCell id="b1p56JkDS0H2IpYGcqzU-7" value="1..N" style="edgeLabel;html=1;align=center;verticalAlign=middle;resizable=0;points=[];" vertex="1" connectable="0" parent="b1p56JkDS0H2IpYGcqzU-6">
          <mxGeometry y="3" relative="1" as="geometry">
            <mxPoint as="offset" />
          </mxGeometry>
        </mxCell>
        <mxCell id="b1p56JkDS0H2IpYGcqzU-2" value="Manage" style="shape=rhombus;perimeter=rhombusPerimeter;whiteSpace=wrap;html=1;align=center;" vertex="1" parent="1">
          <mxGeometry x="240" y="310" width="120" height="60" as="geometry" />
        </mxCell>
        <mxCell id="b1p56JkDS0H2IpYGcqzU-100" style="edgeStyle=orthogonalEdgeStyle;rounded=0;orthogonalLoop=1;jettySize=auto;html=1;exitX=0.75;exitY=0;exitDx=0;exitDy=0;entryX=0;entryY=0.5;entryDx=0;entryDy=0;endArrow=none;endFill=0;" edge="1" parent="1" source="b1p56JkDS0H2IpYGcqzU-5" target="b1p56JkDS0H2IpYGcqzU-67">
          <mxGeometry relative="1" as="geometry" />
        </mxCell>
        <mxCell id="b1p56JkDS0H2IpYGcqzU-101" value="1..N" style="edgeLabel;html=1;align=center;verticalAlign=middle;resizable=0;points=[];" vertex="1" connectable="0" parent="b1p56JkDS0H2IpYGcqzU-100">
          <mxGeometry x="-0.7462" y="-1" relative="1" as="geometry">
            <mxPoint y="18" as="offset" />
          </mxGeometry>
        </mxCell>
        <mxCell id="b1p56JkDS0H2IpYGcqzU-5" value="Resort" style="rounded=1;arcSize=10;whiteSpace=wrap;html=1;align=center;" vertex="1" parent="1">
          <mxGeometry x="400" y="320" width="80" height="40" as="geometry" />
        </mxCell>
        <mxCell id="b1p56JkDS0H2IpYGcqzU-14" value="1..N" style="edgeStyle=orthogonalEdgeStyle;rounded=0;orthogonalLoop=1;jettySize=auto;html=1;exitX=0;exitY=0.5;exitDx=0;exitDy=0;entryX=0.75;entryY=0;entryDx=0;entryDy=0;endArrow=none;endFill=0;" edge="1" parent="1" source="b1p56JkDS0H2IpYGcqzU-8" target="b1p56JkDS0H2IpYGcqzU-5">
          <mxGeometry x="0.7949" relative="1" as="geometry">
            <Array as="points">
              <mxPoint x="430" y="50" />
              <mxPoint x="430" y="320" />
            </Array>
            <mxPoint as="offset" />
          </mxGeometry>
        </mxCell>
        <mxCell id="b1p56JkDS0H2IpYGcqzU-66" style="edgeStyle=orthogonalEdgeStyle;rounded=0;orthogonalLoop=1;jettySize=auto;html=1;exitX=1;exitY=0.5;exitDx=0;exitDy=0;entryX=0;entryY=0.5;entryDx=0;entryDy=0;endArrow=none;endFill=0;" edge="1" parent="1" source="b1p56JkDS0H2IpYGcqzU-8" target="b1p56JkDS0H2IpYGcqzU-46">
          <mxGeometry relative="1" as="geometry" />
        </mxCell>
        <mxCell id="b1p56JkDS0H2IpYGcqzU-8" value="Service" style="shape=rhombus;perimeter=rhombusPerimeter;whiteSpace=wrap;html=1;align=center;" vertex="1" parent="1">
          <mxGeometry x="520" y="20" width="120" height="60" as="geometry" />
        </mxCell>
        <mxCell id="b1p56JkDS0H2IpYGcqzU-12" style="edgeStyle=orthogonalEdgeStyle;rounded=0;orthogonalLoop=1;jettySize=auto;html=1;exitX=0;exitY=0.5;exitDx=0;exitDy=0;entryX=1;entryY=0.5;entryDx=0;entryDy=0;endArrow=none;endFill=0;" edge="1" parent="1" source="b1p56JkDS0H2IpYGcqzU-10" target="b1p56JkDS0H2IpYGcqzU-5">
          <mxGeometry relative="1" as="geometry" />
        </mxCell>
        <mxCell id="b1p56JkDS0H2IpYGcqzU-27" value="1..N" style="edgeLabel;html=1;align=center;verticalAlign=middle;resizable=0;points=[];" vertex="1" connectable="0" parent="b1p56JkDS0H2IpYGcqzU-12">
          <mxGeometry x="-0.1143" y="-2" relative="1" as="geometry">
            <mxPoint x="-12" y="2" as="offset" />
          </mxGeometry>
        </mxCell>
        <mxCell id="b1p56JkDS0H2IpYGcqzU-72" style="edgeStyle=orthogonalEdgeStyle;rounded=0;orthogonalLoop=1;jettySize=auto;html=1;exitX=1;exitY=0.5;exitDx=0;exitDy=0;entryX=0;entryY=0.5;entryDx=0;entryDy=0;endArrow=none;endFill=0;" edge="1" parent="1" source="b1p56JkDS0H2IpYGcqzU-10" target="b1p56JkDS0H2IpYGcqzU-51">
          <mxGeometry relative="1" as="geometry" />
        </mxCell>
        <mxCell id="b1p56JkDS0H2IpYGcqzU-10" value="Contains" style="shape=rhombus;perimeter=rhombusPerimeter;whiteSpace=wrap;html=1;align=center;" vertex="1" parent="1">
          <mxGeometry x="520" y="310" width="120" height="60" as="geometry" />
        </mxCell>
        <mxCell id="b1p56JkDS0H2IpYGcqzU-15" style="edgeStyle=orthogonalEdgeStyle;rounded=0;orthogonalLoop=1;jettySize=auto;html=1;exitX=0;exitY=0.5;exitDx=0;exitDy=0;entryX=0.75;entryY=1;entryDx=0;entryDy=0;endArrow=none;endFill=0;" edge="1" parent="1" source="b1p56JkDS0H2IpYGcqzU-11" target="b1p56JkDS0H2IpYGcqzU-5">
          <mxGeometry relative="1" as="geometry" />
        </mxCell>
        <mxCell id="b1p56JkDS0H2IpYGcqzU-25" value="1..N" style="edgeLabel;html=1;align=center;verticalAlign=middle;resizable=0;points=[];" vertex="1" connectable="0" parent="b1p56JkDS0H2IpYGcqzU-15">
          <mxGeometry x="0.3815" y="-2" relative="1" as="geometry">
            <mxPoint x="-2" y="-58" as="offset" />
          </mxGeometry>
        </mxCell>
        <mxCell id="b1p56JkDS0H2IpYGcqzU-63" style="edgeStyle=orthogonalEdgeStyle;rounded=0;orthogonalLoop=1;jettySize=auto;html=1;exitX=1;exitY=0.5;exitDx=0;exitDy=0;entryX=0;entryY=0.5;entryDx=0;entryDy=0;endArrow=none;endFill=0;" edge="1" parent="1" source="b1p56JkDS0H2IpYGcqzU-11" target="b1p56JkDS0H2IpYGcqzU-38">
          <mxGeometry relative="1" as="geometry" />
        </mxCell>
        <mxCell id="b1p56JkDS0H2IpYGcqzU-11" value="Composits" style="shape=rhombus;perimeter=rhombusPerimeter;whiteSpace=wrap;html=1;align=center;" vertex="1" parent="1">
          <mxGeometry x="520" y="490" width="120" height="60" as="geometry" />
        </mxCell>
        <mxCell id="b1p56JkDS0H2IpYGcqzU-16" value="User" style="rounded=1;arcSize=10;whiteSpace=wrap;html=1;align=center;" vertex="1" parent="1">
          <mxGeometry x="520" y="-60" width="80" height="40" as="geometry" />
        </mxCell>
        <mxCell id="b1p56JkDS0H2IpYGcqzU-18" value="Reservation" style="rounded=1;arcSize=10;whiteSpace=wrap;html=1;align=center;" vertex="1" parent="1">
          <mxGeometry x="520" y="240" width="80" height="40" as="geometry" />
        </mxCell>
        <mxCell id="b1p56JkDS0H2IpYGcqzU-33" style="edgeStyle=orthogonalEdgeStyle;rounded=0;orthogonalLoop=1;jettySize=auto;html=1;exitX=1;exitY=0.5;exitDx=0;exitDy=0;entryX=0.22;entryY=0.5;entryDx=0;entryDy=0;endArrow=none;endFill=0;entryPerimeter=0;" edge="1" parent="1" source="b1p56JkDS0H2IpYGcqzU-19" target="b1p56JkDS0H2IpYGcqzU-37">
          <mxGeometry relative="1" as="geometry">
            <mxPoint x="670" y="440" as="targetPoint" />
          </mxGeometry>
        </mxCell>
        <mxCell id="b1p56JkDS0H2IpYGcqzU-19" value="Facility" style="rounded=1;arcSize=10;whiteSpace=wrap;html=1;align=center;" vertex="1" parent="1">
          <mxGeometry x="520" y="420" width="80" height="40" as="geometry" />
        </mxCell>
        <mxCell id="b1p56JkDS0H2IpYGcqzU-23" value="" style="endArrow=classic;html=1;rounded=0;" edge="1" parent="1">
          <mxGeometry width="50" height="50" relative="1" as="geometry">
            <mxPoint x="240" y="380" as="sourcePoint" />
            <mxPoint x="360" y="380" as="targetPoint" />
          </mxGeometry>
        </mxCell>
        <mxCell id="b1p56JkDS0H2IpYGcqzU-29" value="" style="endArrow=classic;html=1;rounded=0;" edge="1" parent="1">
          <mxGeometry width="50" height="50" relative="1" as="geometry">
            <mxPoint x="520" y="90" as="sourcePoint" />
            <mxPoint x="640" y="90" as="targetPoint" />
          </mxGeometry>
        </mxCell>
        <mxCell id="b1p56JkDS0H2IpYGcqzU-30" value="" style="endArrow=classic;html=1;rounded=0;" edge="1" parent="1">
          <mxGeometry width="50" height="50" relative="1" as="geometry">
            <mxPoint x="520" y="380" as="sourcePoint" />
            <mxPoint x="640" y="380" as="targetPoint" />
          </mxGeometry>
        </mxCell>
        <mxCell id="b1p56JkDS0H2IpYGcqzU-31" value="" style="endArrow=classic;html=1;rounded=0;" edge="1" parent="1">
          <mxGeometry width="50" height="50" relative="1" as="geometry">
            <mxPoint x="640" y="560" as="sourcePoint" />
            <mxPoint x="520" y="560" as="targetPoint" />
          </mxGeometry>
        </mxCell>
        <mxCell id="b1p56JkDS0H2IpYGcqzU-73" style="edgeStyle=orthogonalEdgeStyle;rounded=0;orthogonalLoop=1;jettySize=auto;html=1;exitX=0.78;exitY=0.5;exitDx=0;exitDy=0;exitPerimeter=0;entryX=0.5;entryY=0;entryDx=0;entryDy=0;endArrow=none;endFill=0;" edge="1" parent="1" source="b1p56JkDS0H2IpYGcqzU-37" target="b1p56JkDS0H2IpYGcqzU-38">
          <mxGeometry relative="1" as="geometry" />
        </mxCell>
        <mxCell id="b1p56JkDS0H2IpYGcqzU-37" value="IsA" style="strokeWidth=2;html=1;shape=mxgraph.flowchart.extract_or_measurement;whiteSpace=wrap;" vertex="1" parent="1">
          <mxGeometry x="670" y="410" width="95" height="60" as="geometry" />
        </mxCell>
        <mxCell id="b1p56JkDS0H2IpYGcqzU-38" value="Room" style="rounded=1;arcSize=10;whiteSpace=wrap;html=1;align=center;" vertex="1" parent="1">
          <mxGeometry x="827" y="500" width="100" height="40" as="geometry" />
        </mxCell>
        <mxCell id="b1p56JkDS0H2IpYGcqzU-61" style="edgeStyle=orthogonalEdgeStyle;rounded=0;orthogonalLoop=1;jettySize=auto;html=1;exitX=0.78;exitY=0.5;exitDx=0;exitDy=0;exitPerimeter=0;entryX=0.5;entryY=0;entryDx=0;entryDy=0;endArrow=none;endFill=0;" edge="1" parent="1" source="b1p56JkDS0H2IpYGcqzU-41" target="b1p56JkDS0H2IpYGcqzU-51">
          <mxGeometry relative="1" as="geometry" />
        </mxCell>
        <mxCell id="b1p56JkDS0H2IpYGcqzU-41" value="IsA" style="strokeWidth=2;html=1;shape=mxgraph.flowchart.extract_or_measurement;whiteSpace=wrap;" vertex="1" parent="1">
          <mxGeometry x="670" y="230" width="95" height="60" as="geometry" />
        </mxCell>
        <mxCell id="b1p56JkDS0H2IpYGcqzU-43" style="edgeStyle=orthogonalEdgeStyle;rounded=0;orthogonalLoop=1;jettySize=auto;html=1;exitX=1;exitY=0.5;exitDx=0;exitDy=0;entryX=0.22;entryY=0.5;entryDx=0;entryDy=0;entryPerimeter=0;endArrow=none;endFill=0;" edge="1" parent="1" source="b1p56JkDS0H2IpYGcqzU-18" target="b1p56JkDS0H2IpYGcqzU-41">
          <mxGeometry relative="1" as="geometry" />
        </mxCell>
        <mxCell id="b1p56JkDS0H2IpYGcqzU-64" style="edgeStyle=orthogonalEdgeStyle;rounded=0;orthogonalLoop=1;jettySize=auto;html=1;exitX=0.78;exitY=0.5;exitDx=0;exitDy=0;exitPerimeter=0;entryX=0.5;entryY=0;entryDx=0;entryDy=0;endArrow=none;endFill=0;" edge="1" parent="1" source="b1p56JkDS0H2IpYGcqzU-45" target="b1p56JkDS0H2IpYGcqzU-46">
          <mxGeometry relative="1" as="geometry" />
        </mxCell>
        <mxCell id="b1p56JkDS0H2IpYGcqzU-65" style="edgeStyle=orthogonalEdgeStyle;rounded=0;orthogonalLoop=1;jettySize=auto;html=1;exitX=0.78;exitY=0.5;exitDx=0;exitDy=0;exitPerimeter=0;entryX=0.5;entryY=0;entryDx=0;entryDy=0;endArrow=none;endFill=0;" edge="1" parent="1" source="b1p56JkDS0H2IpYGcqzU-45" target="b1p56JkDS0H2IpYGcqzU-48">
          <mxGeometry relative="1" as="geometry">
            <Array as="points">
              <mxPoint x="800" y="-40" />
              <mxPoint x="800" y="120" />
              <mxPoint x="877" y="120" />
            </Array>
          </mxGeometry>
        </mxCell>
        <mxCell id="b1p56JkDS0H2IpYGcqzU-45" value="IsA" style="strokeWidth=2;html=1;shape=mxgraph.flowchart.extract_or_measurement;whiteSpace=wrap;" vertex="1" parent="1">
          <mxGeometry x="680" y="-70" width="95" height="60" as="geometry" />
        </mxCell>
        <mxCell id="UJDulOoJgWgwz8MJH8Ku-9" style="edgeStyle=orthogonalEdgeStyle;rounded=0;orthogonalLoop=1;jettySize=auto;html=1;exitX=1;exitY=0.75;exitDx=0;exitDy=0;entryX=1;entryY=0.5;entryDx=0;entryDy=0;" edge="1" parent="1" source="b1p56JkDS0H2IpYGcqzU-46" target="UJDulOoJgWgwz8MJH8Ku-7">
          <mxGeometry relative="1" as="geometry" />
        </mxCell>
        <mxCell id="UJDulOoJgWgwz8MJH8Ku-13" value="1..N" style="edgeLabel;html=1;align=center;verticalAlign=middle;resizable=0;points=[];" connectable="0" vertex="1" parent="UJDulOoJgWgwz8MJH8Ku-9">
          <mxGeometry x="-0.8953" y="-1" relative="1" as="geometry">
            <mxPoint as="offset" />
          </mxGeometry>
        </mxCell>
        <mxCell id="b1p56JkDS0H2IpYGcqzU-46" value="Guest" style="rounded=1;arcSize=10;whiteSpace=wrap;html=1;align=center;" vertex="1" parent="1">
          <mxGeometry x="827" y="30" width="100" height="40" as="geometry" />
        </mxCell>
        <mxCell id="b1p56JkDS0H2IpYGcqzU-47" style="edgeStyle=orthogonalEdgeStyle;rounded=0;orthogonalLoop=1;jettySize=auto;html=1;exitX=1;exitY=0.5;exitDx=0;exitDy=0;entryX=0.22;entryY=0.5;entryDx=0;entryDy=0;entryPerimeter=0;endArrow=none;endFill=0;" edge="1" parent="1" source="b1p56JkDS0H2IpYGcqzU-16" target="b1p56JkDS0H2IpYGcqzU-45">
          <mxGeometry relative="1" as="geometry" />
        </mxCell>
        <mxCell id="UJDulOoJgWgwz8MJH8Ku-3" style="edgeStyle=orthogonalEdgeStyle;rounded=0;orthogonalLoop=1;jettySize=auto;html=1;exitX=1;exitY=0.5;exitDx=0;exitDy=0;entryX=1;entryY=0.5;entryDx=0;entryDy=0;endArrow=none;endFill=0;" edge="1" parent="1" source="b1p56JkDS0H2IpYGcqzU-48" target="UJDulOoJgWgwz8MJH8Ku-2">
          <mxGeometry relative="1" as="geometry" />
        </mxCell>
        <mxCell id="UJDulOoJgWgwz8MJH8Ku-4" value="1..N" style="edgeLabel;html=1;align=center;verticalAlign=middle;resizable=0;points=[];" connectable="0" vertex="1" parent="UJDulOoJgWgwz8MJH8Ku-3">
          <mxGeometry x="-0.8693" y="-2" relative="1" as="geometry">
            <mxPoint as="offset" />
          </mxGeometry>
        </mxCell>
        <mxCell id="b1p56JkDS0H2IpYGcqzU-48" value="FrontDeskAgent" style="rounded=1;arcSize=10;whiteSpace=wrap;html=1;align=center;" vertex="1" parent="1">
          <mxGeometry x="827" y="140" width="100" height="40" as="geometry" />
        </mxCell>
        <mxCell id="b1p56JkDS0H2IpYGcqzU-58" style="edgeStyle=orthogonalEdgeStyle;rounded=0;orthogonalLoop=1;jettySize=auto;html=1;exitX=1;exitY=0.5;exitDx=0;exitDy=0;entryX=0;entryY=0.5;entryDx=0;entryDy=0;endArrow=none;endFill=0;" edge="1" parent="1" source="b1p56JkDS0H2IpYGcqzU-51" target="b1p56JkDS0H2IpYGcqzU-57">
          <mxGeometry relative="1" as="geometry" />
        </mxCell>
        <mxCell id="b1p56JkDS0H2IpYGcqzU-103" value="1..N" style="edgeLabel;html=1;align=center;verticalAlign=middle;resizable=0;points=[];" vertex="1" connectable="0" parent="b1p56JkDS0H2IpYGcqzU-58">
          <mxGeometry x="-0.8959" y="1" relative="1" as="geometry">
            <mxPoint x="2" y="1" as="offset" />
          </mxGeometry>
        </mxCell>
        <mxCell id="b1p56JkDS0H2IpYGcqzU-84" style="edgeStyle=orthogonalEdgeStyle;rounded=0;orthogonalLoop=1;jettySize=auto;html=1;exitX=0.75;exitY=1;exitDx=0;exitDy=0;entryX=0.5;entryY=0;entryDx=0;entryDy=0;endArrow=none;endFill=0;" edge="1" parent="1" source="b1p56JkDS0H2IpYGcqzU-51" target="b1p56JkDS0H2IpYGcqzU-83">
          <mxGeometry relative="1" as="geometry">
            <Array as="points">
              <mxPoint x="902" y="420" />
              <mxPoint x="1200" y="420" />
            </Array>
          </mxGeometry>
        </mxCell>
        <mxCell id="b1p56JkDS0H2IpYGcqzU-104" value="1..N" style="edgeLabel;html=1;align=center;verticalAlign=middle;resizable=0;points=[];" vertex="1" connectable="0" parent="b1p56JkDS0H2IpYGcqzU-84">
          <mxGeometry x="-0.9435" relative="1" as="geometry">
            <mxPoint as="offset" />
          </mxGeometry>
        </mxCell>
        <mxCell id="b1p56JkDS0H2IpYGcqzU-51" value="RoomRersevation" style="rounded=1;arcSize=10;whiteSpace=wrap;html=1;align=center;" vertex="1" parent="1">
          <mxGeometry x="827" y="320" width="100" height="40" as="geometry" />
        </mxCell>
        <mxCell id="b1p56JkDS0H2IpYGcqzU-59" style="edgeStyle=orthogonalEdgeStyle;rounded=0;orthogonalLoop=1;jettySize=auto;html=1;exitX=1;exitY=0.5;exitDx=0;exitDy=0;entryX=1;entryY=0.5;entryDx=0;entryDy=0;endArrow=none;endFill=0;" edge="1" parent="1">
          <mxGeometry relative="1" as="geometry">
            <mxPoint x="1260" y="330" as="sourcePoint" />
            <mxPoint x="927" y="40" as="targetPoint" />
            <Array as="points">
              <mxPoint x="1460" y="330" />
              <mxPoint x="1460" y="40" />
            </Array>
          </mxGeometry>
        </mxCell>
        <mxCell id="UJDulOoJgWgwz8MJH8Ku-1" value="1..N" style="edgeLabel;html=1;align=center;verticalAlign=middle;resizable=0;points=[];" connectable="0" vertex="1" parent="b1p56JkDS0H2IpYGcqzU-59">
          <mxGeometry x="0.9373" relative="1" as="geometry">
            <mxPoint as="offset" />
          </mxGeometry>
        </mxCell>
        <mxCell id="b1p56JkDS0H2IpYGcqzU-57" value="Contains" style="shape=rhombus;perimeter=rhombusPerimeter;whiteSpace=wrap;html=1;align=center;" vertex="1" parent="1">
          <mxGeometry x="1140" y="310" width="120" height="60" as="geometry" />
        </mxCell>
        <mxCell id="b1p56JkDS0H2IpYGcqzU-60" value="" style="endArrow=classic;html=1;rounded=0;" edge="1" parent="1">
          <mxGeometry width="50" height="50" relative="1" as="geometry">
            <mxPoint x="1260" y="380" as="sourcePoint" />
            <mxPoint x="1140" y="380" as="targetPoint" />
          </mxGeometry>
        </mxCell>
        <mxCell id="b1p56JkDS0H2IpYGcqzU-69" style="edgeStyle=orthogonalEdgeStyle;rounded=0;orthogonalLoop=1;jettySize=auto;html=1;exitX=1;exitY=0.5;exitDx=0;exitDy=0;entryX=0;entryY=0.5;entryDx=0;entryDy=0;endArrow=none;endFill=0;" edge="1" parent="1" source="b1p56JkDS0H2IpYGcqzU-67" target="b1p56JkDS0H2IpYGcqzU-48">
          <mxGeometry relative="1" as="geometry" />
        </mxCell>
        <mxCell id="b1p56JkDS0H2IpYGcqzU-67" value="WorkIn" style="shape=rhombus;perimeter=rhombusPerimeter;whiteSpace=wrap;html=1;align=center;" vertex="1" parent="1">
          <mxGeometry x="520" y="130" width="120" height="60" as="geometry" />
        </mxCell>
        <mxCell id="b1p56JkDS0H2IpYGcqzU-68" value="" style="endArrow=classic;html=1;rounded=0;" edge="1" parent="1">
          <mxGeometry width="50" height="50" relative="1" as="geometry">
            <mxPoint x="640" y="200" as="sourcePoint" />
            <mxPoint x="520" y="200" as="targetPoint" />
          </mxGeometry>
        </mxCell>
        <mxCell id="b1p56JkDS0H2IpYGcqzU-85" style="edgeStyle=orthogonalEdgeStyle;rounded=0;orthogonalLoop=1;jettySize=auto;html=1;exitX=0;exitY=0.5;exitDx=0;exitDy=0;entryX=1;entryY=0.5;entryDx=0;entryDy=0;endArrow=none;endFill=0;" edge="1" parent="1" source="b1p56JkDS0H2IpYGcqzU-83" target="b1p56JkDS0H2IpYGcqzU-38">
          <mxGeometry relative="1" as="geometry" />
        </mxCell>
        <mxCell id="b1p56JkDS0H2IpYGcqzU-105" value="1..N" style="edgeLabel;html=1;align=center;verticalAlign=middle;resizable=0;points=[];" vertex="1" connectable="0" parent="b1p56JkDS0H2IpYGcqzU-85">
          <mxGeometry x="0.9013" y="1" relative="1" as="geometry">
            <mxPoint as="offset" />
          </mxGeometry>
        </mxCell>
        <mxCell id="b1p56JkDS0H2IpYGcqzU-83" value="Contains" style="shape=rhombus;perimeter=rhombusPerimeter;whiteSpace=wrap;html=1;align=center;" vertex="1" parent="1">
          <mxGeometry x="1140" y="490" width="120" height="60" as="geometry" />
        </mxCell>
        <mxCell id="b1p56JkDS0H2IpYGcqzU-86" value="" style="endArrow=classic;html=1;rounded=0;" edge="1" parent="1">
          <mxGeometry width="50" height="50" relative="1" as="geometry">
            <mxPoint x="1260" y="560" as="sourcePoint" />
            <mxPoint x="1140" y="560" as="targetPoint" />
          </mxGeometry>
        </mxCell>
        <mxCell id="UJDulOoJgWgwz8MJH8Ku-5" style="edgeStyle=orthogonalEdgeStyle;rounded=0;orthogonalLoop=1;jettySize=auto;html=1;exitX=0;exitY=0.5;exitDx=0;exitDy=0;entryX=0.75;entryY=0;entryDx=0;entryDy=0;endArrow=none;endFill=0;" edge="1" parent="1" source="UJDulOoJgWgwz8MJH8Ku-2" target="b1p56JkDS0H2IpYGcqzU-51">
          <mxGeometry relative="1" as="geometry" />
        </mxCell>
        <mxCell id="UJDulOoJgWgwz8MJH8Ku-11" value="1..N" style="edgeLabel;html=1;align=center;verticalAlign=middle;resizable=0;points=[];" connectable="0" vertex="1" parent="UJDulOoJgWgwz8MJH8Ku-5">
          <mxGeometry x="0.63" y="-1" relative="1" as="geometry">
            <mxPoint as="offset" />
          </mxGeometry>
        </mxCell>
        <mxCell id="UJDulOoJgWgwz8MJH8Ku-2" value="Create" style="shape=rhombus;perimeter=rhombusPerimeter;whiteSpace=wrap;html=1;align=center;" vertex="1" parent="1">
          <mxGeometry x="1000" y="200" width="120" height="60" as="geometry" />
        </mxCell>
        <mxCell id="UJDulOoJgWgwz8MJH8Ku-6" value="" style="endArrow=classic;html=1;rounded=0;" edge="1" parent="1">
          <mxGeometry width="50" height="50" relative="1" as="geometry">
            <mxPoint x="1120" y="270" as="sourcePoint" />
            <mxPoint x="1000" y="270" as="targetPoint" />
          </mxGeometry>
        </mxCell>
        <mxCell id="UJDulOoJgWgwz8MJH8Ku-7" value="Create" style="shape=rhombus;perimeter=rhombusPerimeter;whiteSpace=wrap;html=1;align=center;fontStyle=1" vertex="1" parent="1">
          <mxGeometry x="1241" y="200" width="120" height="60" as="geometry" />
        </mxCell>
        <mxCell id="UJDulOoJgWgwz8MJH8Ku-8" value="" style="endArrow=classic;html=1;rounded=0;" edge="1" parent="1">
          <mxGeometry width="50" height="50" relative="1" as="geometry">
            <mxPoint x="1361" y="270" as="sourcePoint" />
            <mxPoint x="1241" y="270" as="targetPoint" />
          </mxGeometry>
        </mxCell>
        <mxCell id="UJDulOoJgWgwz8MJH8Ku-10" style="edgeStyle=orthogonalEdgeStyle;rounded=0;orthogonalLoop=1;jettySize=auto;html=1;exitX=0;exitY=0.5;exitDx=0;exitDy=0;entryX=0.91;entryY=0;entryDx=0;entryDy=0;entryPerimeter=0;endArrow=none;endFill=0;" edge="1" parent="1" source="UJDulOoJgWgwz8MJH8Ku-7" target="b1p56JkDS0H2IpYGcqzU-51">
          <mxGeometry relative="1" as="geometry">
            <Array as="points">
              <mxPoint x="1200" y="230" />
              <mxPoint x="1200" y="290" />
              <mxPoint x="918" y="290" />
            </Array>
          </mxGeometry>
        </mxCell>
        <mxCell id="UJDulOoJgWgwz8MJH8Ku-12" value="1..N" style="edgeLabel;html=1;align=center;verticalAlign=middle;resizable=0;points=[];" connectable="0" vertex="1" parent="UJDulOoJgWgwz8MJH8Ku-10">
          <mxGeometry x="0.9285" y="-1" relative="1" as="geometry">
            <mxPoint as="offset" />
          </mxGeometry>
        </mxCell>
      </root>
    </mxGraphModel>
  </diagram>
</mxfile>
